# xmcd
#
# Track frame offsets:
#	150
#	11491
#	23514
#	36497
#	50660
#	63399
#	76957
#	90843
#	102470
#	113395
#	127516
#
# Disc length: 1864 seconds
#
# Revision: 0
# Processed by: cddbd v1.5.1PL2 Copyright (c) Steve Scherf et al.
# Submitted via: EasyCDDAExtractor 9.1.3.1
#
DISCID=7507460b
DTITLE=Roy Rogers - Home On The Range
DYEAR=2006
DGENRE=Country
TTITLE0=Hi-Yo Silver
TTITLE1=Home On The Range
TTITLE2=Blues Shadows On The Trail
TTITLE3=Round That Couple, Go Through And Swing
TTITLE4=I Can't Go On This Way
TTITLE5=My Heart Went That-A-Way
TTITLE6=Pecos Bill
TTITLE7=Roll On Texas Moon
TTITLE8=My Chicashay Gal
TTITLE9=Rock Me To Sleep In My Saddle
TTITLE10=On The Old Spanish Trail
EXTD=
EXTT0=
EXTT1=
EXTT2=
EXTT3=
EXTT4=
EXTT5=
EXTT6=
EXTT7=
EXTT8=
EXTT9=
EXTT10=
PLAYORDER=
